<mxfile host="Electron" modified="2023-10-31T02:09:28.790Z" agent="Mozilla/5.0 (Windows NT 10.0; Win64; x64) AppleWebKit/537.36 (KHTML, like Gecko) draw.io/22.0.3 Chrome/114.0.5735.289 Electron/25.8.4 Safari/537.36" etag="LMIMLi-64eF75ZgCy1J8" version="22.0.3" type="device">
  <diagram name="Page-1" id="97916047-d0de-89f5-080d-49f4d83e522f">
    <mxGraphModel dx="2069" dy="878" grid="1" gridSize="10" guides="1" tooltips="1" connect="1" arrows="1" fold="1" page="1" pageScale="1.5" pageWidth="1169" pageHeight="827" background="none" math="0" shadow="0">
      <root>
        <mxCell id="0" />
        <mxCell id="1" parent="0" />
        <mxCell id="2" value="Khách hàng" style="rounded=1;fillColor=#10739E;strokeColor=none;shadow=1;gradientColor=none;fontStyle=1;fontColor=#FFFFFF;fontSize=14;" parent="1" vertex="1">
          <mxGeometry x="672" y="205.5" width="200" height="60" as="geometry" />
        </mxCell>
        <mxCell id="3" value="Mua sắm" style="rounded=1;fillColor=#10739E;strokeColor=none;shadow=1;gradientColor=none;fontStyle=1;fontColor=#FFFFFF;fontSize=14;" parent="1" vertex="1">
          <mxGeometry x="662" y="345.5" width="220" height="60" as="geometry" />
        </mxCell>
        <mxCell id="4" value="Xem sản phẩm" style="rounded=1;fillColor=#10739E;strokeColor=none;shadow=1;gradientColor=none;fontStyle=1;fontColor=#FFFFFF;fontSize=14;" parent="1" vertex="1">
          <mxGeometry x="420" y="455.5" width="200" height="60" as="geometry" />
        </mxCell>
        <mxCell id="5" value="Thêm vào giỏ hàng" style="rounded=1;fillColor=#10739E;strokeColor=none;shadow=1;gradientColor=none;fontStyle=1;fontColor=#FFFFFF;fontSize=14;" parent="1" vertex="1">
          <mxGeometry x="930" y="455.5" width="200" height="60" as="geometry" />
        </mxCell>
        <mxCell id="22" value="Đặt hàng" style="rounded=1;fillColor=#10739E;strokeColor=none;shadow=1;gradientColor=none;fontStyle=1;fontColor=#FFFFFF;fontSize=14;" parent="1" vertex="1">
          <mxGeometry x="930" y="560" width="200" height="60" as="geometry" />
        </mxCell>
        <mxCell id="27" value="Cập nhật giỏ hàng" style="rounded=1;fillColor=#10739E;strokeColor=none;shadow=1;gradientColor=none;fontStyle=1;fontColor=#FFFFFF;fontSize=14;" parent="1" vertex="1">
          <mxGeometry x="930" y="660" width="200" height="60" as="geometry" />
        </mxCell>
        <mxCell id="29" value="" style="edgeStyle=elbowEdgeStyle;elbow=vertical;strokeWidth=4;endArrow=block;endFill=1;fontStyle=1;strokeColor=#23445D;" parent="1" source="2" target="3" edge="1">
          <mxGeometry x="22" y="165.5" width="100" height="100" as="geometry">
            <mxPoint x="22" y="265.5" as="sourcePoint" />
            <mxPoint x="122" y="165.5" as="targetPoint" />
          </mxGeometry>
        </mxCell>
        <mxCell id="30" value="" style="edgeStyle=elbowEdgeStyle;elbow=vertical;strokeWidth=4;endArrow=block;endFill=1;fontStyle=1;strokeColor=#23445D;" parent="1" source="3" target="5" edge="1">
          <mxGeometry x="22" y="165.5" width="100" height="100" as="geometry">
            <mxPoint x="22" y="265.5" as="sourcePoint" />
            <mxPoint x="122" y="165.5" as="targetPoint" />
          </mxGeometry>
        </mxCell>
        <mxCell id="31" value="" style="edgeStyle=elbowEdgeStyle;elbow=vertical;strokeWidth=4;endArrow=block;endFill=1;fontStyle=1;strokeColor=#23445D;" parent="1" source="3" target="4" edge="1">
          <mxGeometry x="22" y="165.5" width="100" height="100" as="geometry">
            <mxPoint x="22" y="265.5" as="sourcePoint" />
            <mxPoint x="122" y="165.5" as="targetPoint" />
          </mxGeometry>
        </mxCell>
        <mxCell id="TVs48R_fng3MpOny4IVQ-55" value="" style="edgeStyle=elbowEdgeStyle;elbow=vertical;strokeWidth=4;endArrow=block;endFill=1;fontStyle=1;strokeColor=#23445D;entryX=0;entryY=0.5;entryDx=0;entryDy=0;exitX=0;exitY=0.5;exitDx=0;exitDy=0;" edge="1" parent="1" source="5" target="22">
          <mxGeometry x="22" y="165.5" width="100" height="100" as="geometry">
            <mxPoint x="1000" y="530" as="sourcePoint" />
            <mxPoint x="1040" y="466" as="targetPoint" />
            <Array as="points">
              <mxPoint x="890" y="537" />
            </Array>
          </mxGeometry>
        </mxCell>
        <mxCell id="TVs48R_fng3MpOny4IVQ-56" value="" style="edgeStyle=elbowEdgeStyle;elbow=vertical;strokeWidth=4;endArrow=block;endFill=1;fontStyle=1;strokeColor=#23445D;entryX=0;entryY=0.5;entryDx=0;entryDy=0;exitX=0;exitY=0.5;exitDx=0;exitDy=0;" edge="1" parent="1" source="5" target="27">
          <mxGeometry x="22" y="165.5" width="100" height="100" as="geometry">
            <mxPoint x="1040" y="526" as="sourcePoint" />
            <mxPoint x="1040" y="570" as="targetPoint" />
            <Array as="points">
              <mxPoint x="890" y="590" />
            </Array>
          </mxGeometry>
        </mxCell>
        <mxCell id="TVs48R_fng3MpOny4IVQ-58" value="" style="edgeStyle=elbowEdgeStyle;elbow=vertical;strokeWidth=4;endArrow=block;endFill=1;fontStyle=1;strokeColor=#23445D;exitX=1;exitY=0.5;exitDx=0;exitDy=0;entryX=1;entryY=0.5;entryDx=0;entryDy=0;" edge="1" parent="1" source="4" target="TVs48R_fng3MpOny4IVQ-59">
          <mxGeometry x="22" y="165.5" width="100" height="100" as="geometry">
            <mxPoint x="782" y="416" as="sourcePoint" />
            <mxPoint x="530" y="466" as="targetPoint" />
            <Array as="points">
              <mxPoint x="660" y="537" />
            </Array>
          </mxGeometry>
        </mxCell>
        <mxCell id="TVs48R_fng3MpOny4IVQ-59" value="Tìm kiếm sản phẩm" style="rounded=1;fillColor=#10739E;strokeColor=none;shadow=1;gradientColor=none;fontStyle=1;fontColor=#FFFFFF;fontSize=14;" vertex="1" parent="1">
          <mxGeometry x="420" y="560" width="200" height="60" as="geometry" />
        </mxCell>
        <mxCell id="TVs48R_fng3MpOny4IVQ-60" value="Lọc sản phẩm" style="rounded=1;fillColor=#10739E;strokeColor=none;shadow=1;gradientColor=none;fontStyle=1;fontColor=#FFFFFF;fontSize=14;" vertex="1" parent="1">
          <mxGeometry x="420" y="660" width="200" height="60" as="geometry" />
        </mxCell>
        <mxCell id="TVs48R_fng3MpOny4IVQ-61" value="" style="edgeStyle=elbowEdgeStyle;elbow=vertical;strokeWidth=4;endArrow=block;endFill=1;fontStyle=1;strokeColor=#23445D;exitX=1;exitY=0.5;exitDx=0;exitDy=0;entryX=1;entryY=0.5;entryDx=0;entryDy=0;" edge="1" parent="1" source="4" target="TVs48R_fng3MpOny4IVQ-60">
          <mxGeometry x="22" y="165.5" width="100" height="100" as="geometry">
            <mxPoint x="630" y="496" as="sourcePoint" />
            <mxPoint x="630" y="600" as="targetPoint" />
            <Array as="points">
              <mxPoint x="660" y="580" />
            </Array>
          </mxGeometry>
        </mxCell>
        <mxCell id="TVs48R_fng3MpOny4IVQ-62" value="Thêm sản phẩm vào giỏ" style="rounded=1;fillColor=#10739E;strokeColor=none;shadow=1;gradientColor=none;fontStyle=1;fontColor=#FFFFFF;fontSize=14;" vertex="1" parent="1">
          <mxGeometry x="550" y="730" width="200" height="60" as="geometry" />
        </mxCell>
        <mxCell id="TVs48R_fng3MpOny4IVQ-63" value="Thay đổi số lượng" style="rounded=1;fillColor=#10739E;strokeColor=none;shadow=1;gradientColor=none;fontStyle=1;fontColor=#FFFFFF;fontSize=14;" vertex="1" parent="1">
          <mxGeometry x="550" y="810" width="200" height="60" as="geometry" />
        </mxCell>
        <mxCell id="TVs48R_fng3MpOny4IVQ-64" value="Xóa sản phẩm trong giỏ" style="rounded=1;fillColor=#10739E;strokeColor=none;shadow=1;gradientColor=none;fontStyle=1;fontColor=#FFFFFF;fontSize=14;" vertex="1" parent="1">
          <mxGeometry x="550" y="890" width="200" height="60" as="geometry" />
        </mxCell>
        <mxCell id="TVs48R_fng3MpOny4IVQ-65" value="" style="edgeStyle=elbowEdgeStyle;elbow=vertical;strokeWidth=4;endArrow=block;endFill=1;fontStyle=1;strokeColor=#23445D;entryX=1;entryY=0.5;entryDx=0;entryDy=0;exitX=0;exitY=1;exitDx=0;exitDy=0;" edge="1" parent="1" source="27" target="TVs48R_fng3MpOny4IVQ-62">
          <mxGeometry x="22" y="165.5" width="100" height="100" as="geometry">
            <mxPoint x="940" y="496" as="sourcePoint" />
            <mxPoint x="940" y="700" as="targetPoint" />
            <Array as="points">
              <mxPoint x="930" y="760" />
            </Array>
          </mxGeometry>
        </mxCell>
        <mxCell id="TVs48R_fng3MpOny4IVQ-66" value="" style="edgeStyle=elbowEdgeStyle;elbow=vertical;strokeWidth=4;endArrow=block;endFill=1;fontStyle=1;strokeColor=#23445D;entryX=1;entryY=0.5;entryDx=0;entryDy=0;exitX=0;exitY=1;exitDx=0;exitDy=0;" edge="1" parent="1" source="27" target="TVs48R_fng3MpOny4IVQ-63">
          <mxGeometry x="22" y="165.5" width="100" height="100" as="geometry">
            <mxPoint x="1140" y="700" as="sourcePoint" />
            <mxPoint x="1110" y="780" as="targetPoint" />
            <Array as="points">
              <mxPoint x="920" y="850" />
            </Array>
          </mxGeometry>
        </mxCell>
        <mxCell id="TVs48R_fng3MpOny4IVQ-67" value="" style="edgeStyle=elbowEdgeStyle;elbow=vertical;strokeWidth=4;endArrow=block;endFill=1;fontStyle=1;strokeColor=#23445D;entryX=1;entryY=0.5;entryDx=0;entryDy=0;exitX=0;exitY=1;exitDx=0;exitDy=0;" edge="1" parent="1" source="27" target="TVs48R_fng3MpOny4IVQ-64">
          <mxGeometry x="22" y="165.5" width="100" height="100" as="geometry">
            <mxPoint x="1150" y="710" as="sourcePoint" />
            <mxPoint x="1120" y="790" as="targetPoint" />
            <Array as="points">
              <mxPoint x="1110" y="920" />
            </Array>
          </mxGeometry>
        </mxCell>
        <mxCell id="TVs48R_fng3MpOny4IVQ-68" value="Thanh toán  online" style="rounded=1;fillColor=#10739E;strokeColor=none;shadow=1;gradientColor=none;fontStyle=1;fontColor=#FFFFFF;fontSize=14;" vertex="1" parent="1">
          <mxGeometry x="1000" y="740" width="200" height="60" as="geometry" />
        </mxCell>
        <mxCell id="TVs48R_fng3MpOny4IVQ-69" value="Thanh toán sau nhận hàng" style="rounded=1;fillColor=#10739E;strokeColor=none;shadow=1;gradientColor=none;fontStyle=1;fontColor=#FFFFFF;fontSize=14;" vertex="1" parent="1">
          <mxGeometry x="1000" y="820" width="200" height="60" as="geometry" />
        </mxCell>
        <mxCell id="TVs48R_fng3MpOny4IVQ-70" value="Đặt cộc" style="rounded=1;fillColor=#10739E;strokeColor=none;shadow=1;gradientColor=none;fontStyle=1;fontColor=#FFFFFF;fontSize=14;" vertex="1" parent="1">
          <mxGeometry x="1000" y="910" width="200" height="60" as="geometry" />
        </mxCell>
        <mxCell id="TVs48R_fng3MpOny4IVQ-75" value="" style="edgeStyle=elbowEdgeStyle;elbow=vertical;strokeWidth=4;endArrow=block;endFill=1;fontStyle=1;strokeColor=#23445D;entryX=1;entryY=0.5;entryDx=0;entryDy=0;exitX=1;exitY=0.5;exitDx=0;exitDy=0;" edge="1" parent="1" source="22" target="TVs48R_fng3MpOny4IVQ-68">
          <mxGeometry x="22" y="165.5" width="100" height="100" as="geometry">
            <mxPoint x="940" y="730" as="sourcePoint" />
            <mxPoint x="760" y="770" as="targetPoint" />
            <Array as="points">
              <mxPoint x="1240" y="690" />
            </Array>
          </mxGeometry>
        </mxCell>
        <mxCell id="TVs48R_fng3MpOny4IVQ-76" value="" style="edgeStyle=elbowEdgeStyle;elbow=vertical;strokeWidth=4;endArrow=block;endFill=1;fontStyle=1;strokeColor=#23445D;entryX=1;entryY=0.5;entryDx=0;entryDy=0;exitX=1;exitY=0.5;exitDx=0;exitDy=0;" edge="1" parent="1" source="22" target="TVs48R_fng3MpOny4IVQ-69">
          <mxGeometry x="22" y="165.5" width="100" height="100" as="geometry">
            <mxPoint x="1140" y="600" as="sourcePoint" />
            <mxPoint x="1210" y="780" as="targetPoint" />
            <Array as="points">
              <mxPoint x="1240" y="720" />
            </Array>
          </mxGeometry>
        </mxCell>
        <mxCell id="TVs48R_fng3MpOny4IVQ-78" value="" style="edgeStyle=elbowEdgeStyle;elbow=vertical;strokeWidth=4;endArrow=block;endFill=1;fontStyle=1;strokeColor=#23445D;entryX=1;entryY=0.5;entryDx=0;entryDy=0;exitX=1;exitY=0.5;exitDx=0;exitDy=0;" edge="1" parent="1" source="22" target="TVs48R_fng3MpOny4IVQ-70">
          <mxGeometry x="22" y="165.5" width="100" height="100" as="geometry">
            <mxPoint x="1150" y="610" as="sourcePoint" />
            <mxPoint x="1220" y="790" as="targetPoint" />
            <Array as="points">
              <mxPoint x="1240" y="770" />
            </Array>
          </mxGeometry>
        </mxCell>
      </root>
    </mxGraphModel>
  </diagram>
</mxfile>
